<svg width="1396" height="1229" viewBox="0 0 1396 1229" fill="none" xmlns="http://www.w3.org/2000/svg">
<rect width="1396" height="1229" fill="#FFF4EC"/>
<path d="M707.031 875.5C786.687 863.085 995.987 793.094 855.802 539M707.031 875.5C612.224 861.546 402.307 798.915 550.503 539M707.031 875.5L547.531 843.5M707.031 875.5L867.031 834M707.031 875.5C857.459 855.931 1012.5 814.5 1075 770M707.031 875.5C331.531 833.5 217.031 718.5 198.531 606M855.802 539C855.802 539 878.623 509.308 920.531 474.009M855.802 539C843.363 516.453 816.715 479.043 798.531 453.5M550.503 539C580.615 486.188 625.739 425.211 689.936 354.813C697.764 346.229 711.15 346.333 718.67 355.188C738.443 378.475 767.817 414.58 778 426.5M550.503 539C550.503 539 539.637 525.036 503.531 493M503.531 493C466.425 460.076 410.222 412.538 347.031 387M503.531 493C503.531 493 491.031 396.5 530.531 323M920.531 474.009C920.531 474.009 875.411 310.244 823.031 213M920.531 474.009C956.164 443.996 1005.6 409.93 1066.53 386.615M823.031 213C793.39 157.97 769.29 124.615 716.136 76.6195C708.702 69.9074 697.368 69.9313 689.931 76.639C639.633 122.001 623.911 145.296 581.531 216M823.031 213C883.398 182.816 912.089 147.124 1066.59 137.595C1077.95 136.894 1087.54 146.063 1087.43 157.448C1085.88 320.625 1066.53 386.615 1066.53 386.615M581.531 216C474.25 149.363 445.143 134.991 341.363 133.616C330.804 133.476 321.999 141.721 321.478 152.268C312.369 336.412 347.031 387 347.031 387M581.531 216C577.068 223.446 543.989 285.781 540 293M347.031 387C307.026 372.087 249.603 356.914 200.537 357.504C190.285 357.627 182.538 366.294 182.404 376.546C182.147 396.306 181.56 416.537 181.232 437C181.067 447.285 180.968 457.628 181.009 468M1066.53 386.615C1073.39 383.992 1080.39 381.505 1087.53 379.175C1120.73 368.346 1157.01 360.913 1196.04 358.991C1207.07 358.448 1216.03 367.453 1216.1 378.499C1216.99 515.529 1223.66 653.779 1101.53 751M547.531 843.5C461.131 925.9 529.031 1008 568.531 1041M547.531 843.5C385.446 832.31 302.29 858.442 235.627 958.649C230.957 965.669 231.422 974.996 237.365 980.978C298.931 1042.95 436.206 1059.97 568.531 1041M867.031 834C955.031 943 877.365 1016.5 841.031 1041M867.031 834C1055.03 839.17 1146.28 897.356 1175.65 959.969C1179.01 967.122 1176.82 975.526 1170.84 980.682C1087.85 1052.13 1000.8 1053.51 841.031 1041M841.031 1041C787.009 1086.75 728.531 1097.76 707.031 1097.71C685.531 1097.67 605.531 1080 568.531 1041M182.531 493L187 539L193.5 584.5" stroke="#F7B239" stroke-width="60"/>
</svg>
